<svg width="25" height="25" viewBox="0 0 25 25" fill="none" xmlns="http://www.w3.org/2000/svg">
<path d="M12.797 3.01221C10.8686 3.01221 8.98359 3.58403 7.38021 4.65538C5.77683 5.72672 4.52715 7.24946 3.78919 9.03104C3.05124 10.8126 2.85815 12.773 3.23436 14.6643C3.61057 16.5557 4.53916 18.2929 5.90273 19.6565C7.26629 21.0201 9.00357 21.9487 10.8949 22.3249C12.7862 22.7011 14.7466 22.508 16.5282 21.77C18.3098 21.0321 19.8325 19.7824 20.9038 18.179C21.9752 16.5756 22.547 14.6906 22.547 12.7622C22.5443 10.1772 21.5162 7.69882 19.6883 5.87093C17.8604 4.04304 15.382 3.01494 12.797 3.01221ZM12.797 21.0122C11.1653 21.0122 9.57027 20.5284 8.21356 19.6218C6.85686 18.7153 5.79943 17.4268 5.17501 15.9193C4.55059 14.4119 4.38721 12.7531 4.70554 11.1527C5.02387 9.55237 5.8096 8.08236 6.96339 6.92858C8.11717 5.77479 9.58718 4.98906 11.1875 4.67073C12.7879 4.3524 14.4467 4.51578 15.9542 5.1402C17.4616 5.76462 18.7501 6.82205 19.6566 8.17875C20.5632 9.53546 21.047 11.1305 21.047 12.7622C21.0445 14.9495 20.1745 17.0465 18.6279 18.5931C17.0813 20.1397 14.9843 21.0097 12.797 21.0122ZM18.797 12.7622C18.797 12.9611 18.718 13.1519 18.5773 13.2925C18.4367 13.4332 18.2459 13.5122 18.047 13.5122H12.797C12.5981 13.5122 12.4073 13.4332 12.2667 13.2925C12.126 13.1519 12.047 12.9611 12.047 12.7622V7.51221C12.047 7.31329 12.126 7.12253 12.2667 6.98188C12.4073 6.84122 12.5981 6.76221 12.797 6.76221C12.9959 6.76221 13.1867 6.84122 13.3273 6.98188C13.468 7.12253 13.547 7.31329 13.547 7.51221V12.0122H18.047C18.2459 12.0122 18.4367 12.0912 18.5773 12.2319C18.718 12.3725 18.797 12.5633 18.797 12.7622Z" fill="#03C0FF"/>
</svg>
