<svg width="25" height="25" viewBox="0 0 25 25" fill="none" xmlns="http://www.w3.org/2000/svg">
<path d="M12.6993 2.71973C10.771 2.71973 8.88591 3.29155 7.28254 4.3629C5.67916 5.43424 4.42947 6.95698 3.69152 8.73856C2.95357 10.5201 2.76048 12.4805 3.13669 14.3719C3.51289 16.2632 4.44149 18.0005 5.80505 19.364C7.16862 20.7276 8.9059 21.6562 10.7972 22.0324C12.6885 22.4086 14.6489 22.2155 16.4305 21.4776C18.2121 20.7396 19.7348 19.4899 20.8062 17.8865C21.8775 16.2832 22.4493 14.3981 22.4493 12.4697C22.4466 9.8847 21.4185 7.40634 19.5906 5.57845C17.7627 3.75056 15.2844 2.72246 12.6993 2.71973ZM13.4493 20.685V14.7197H15.6993C15.8983 14.7197 16.089 14.6407 16.2297 14.5001C16.3703 14.3594 16.4493 14.1686 16.4493 13.9697C16.4493 13.7708 16.3703 13.58 16.2297 13.4394C16.089 13.2987 15.8983 13.2197 15.6993 13.2197H13.4493V10.9697C13.4493 10.5719 13.6074 10.1904 13.8887 9.90907C14.17 9.62776 14.5515 9.46973 14.9493 9.46973H16.4493C16.6483 9.46973 16.839 9.39071 16.9797 9.25006C17.1203 9.1094 17.1993 8.91864 17.1993 8.71973C17.1993 8.52081 17.1203 8.33005 16.9797 8.1894C16.839 8.04874 16.6483 7.96973 16.4493 7.96973H14.9493C14.1537 7.96973 13.3906 8.2858 12.828 8.84841C12.2654 9.41102 11.9493 10.1741 11.9493 10.9697V13.2197H9.69935C9.50043 13.2197 9.30967 13.2987 9.16902 13.4394C9.02836 13.58 8.94935 13.7708 8.94935 13.9697C8.94935 14.1686 9.02836 14.3594 9.16902 14.5001C9.30967 14.6407 9.50043 14.7197 9.69935 14.7197H11.9493V20.685C9.83509 20.492 7.87662 19.4914 6.48132 17.8913C5.08601 16.2911 4.36129 14.2147 4.45789 12.0938C4.55449 9.97296 5.46498 7.971 6.99998 6.50433C8.53497 5.03766 10.5763 4.2192 12.6993 4.2192C14.8224 4.2192 16.8637 5.03766 18.3987 6.50433C19.9337 7.971 20.8442 9.97296 20.9408 12.0938C21.0374 14.2147 20.3127 16.2911 18.9174 17.8913C17.5221 19.4914 15.5636 20.492 13.4493 20.685Z" fill="#03C0FF"/>
</svg>
